<svg xmlns="http://www.w3.org/2000/svg" width="98.409" height="61.263" viewBox="0 0 98.409 61.263">
  <g id="Grupo_146387" data-name="Grupo 146387" transform="translate(12303.955 12859.924)">
    <path id="Trazado_202406" data-name="Trazado 202406" d="M276.8,32.355l-5.273-3.044,19.439-11.222a1.015,1.015,0,0,0,0-1.923L271.109,4.7a3.686,3.686,0,0,0-3.33,0L248.341,15.923l-5.273-3.043L262.507,1.657a15.36,15.36,0,0,1,13.875,0l19.857,11.466c3.826,2.208,3.826,5.8,0,8.009Z" transform="translate(-12504.654 -12859.925)" fill="#00defc"/>
    <path id="Trazado_202407" data-name="Trazado 202407" d="M285.925,33.612c0-2.818-1.714-6.093-3.827-7.313L246.879,5.965a2.457,2.457,0,0,0-2.48-.211l0,0L202.346,30.188,243.01,60.83l41.429-24.044a1.98,1.98,0,0,0,.366-.213,3.6,3.6,0,0,0,1.12-2.96" transform="translate(-12505.271 -12859.842)" fill="#d4ecff"/>
    <path id="Trazado_202408" data-name="Trazado 202408" d="M242.484,60.471l41.429-24.045a1.883,1.883,0,0,0,.365-.212h0a3.6,3.6,0,0,0,1.12-2.96,9.381,9.381,0,0,0-1.032-4.073L237.141,56.446Z" transform="translate(-12504.744 -12859.483)" fill="#396caa"/>
    <path id="Trazado_202409" data-name="Trazado 202409" d="M240.377,60.36,205.158,40.026c-2.114-1.22-3.827-4.494-3.827-7.313s1.714-4.113,3.827-2.893l35.219,20.333c2.114,1.221,3.828,4.5,3.828,7.314s-1.715,4.113-3.828,2.893" transform="translate(-12505.286 -12859.48)" fill="#084a93"/>
    <path id="Trazado_202410" data-name="Trazado 202410" d="M240.776,49.964,205.557,29.631a2.429,2.429,0,0,0-2.532-.18,2.663,2.663,0,0,1,2.108.372l35.219,20.334c2.114,1.22,3.827,4.5,3.827,7.313a3.41,3.41,0,0,1-1.3,3.073c1.036-.316,1.721-1.486,1.721-3.266,0-2.818-1.715-6.092-3.828-7.313" transform="translate(-12505.261 -12859.483)" fill="#fff"/>
    <path id="Trazado_202411" data-name="Trazado 202411" d="M234.674,53.211l-4.234-2.442a1.829,1.829,0,0,1-.763-1.458c0-.562.342-.82.763-.577l4.234,2.442a1.827,1.827,0,0,1,.763,1.458c0,.561-.342.82-.763.577" transform="translate(-12504.857 -12859.188)" fill="#ffb30b"/>
    <path id="Trazado_202412" data-name="Trazado 202412" d="M240,25.057a1.229,1.229,0,0,0-.024-2.328,4.458,4.458,0,0,0-4.032.042,1.229,1.229,0,0,0,.024,2.329A4.458,4.458,0,0,0,240,25.057" transform="translate(-12504.774 -12859.588)" fill="#5793ce"/>
    <path id="Trazado_202413" data-name="Trazado 202413" d="M246.054,28.468a1.229,1.229,0,0,0-.024-2.328,4.458,4.458,0,0,0-4.032.042,1.229,1.229,0,0,0,.024,2.328,4.455,4.455,0,0,0,4.032-.042" transform="translate(-12504.683 -12859.536)" fill="#fff"/>
    <path id="Trazado_202414" data-name="Trazado 202414" d="M252.107,31.878a1.229,1.229,0,0,0-.024-2.328,4.458,4.458,0,0,0-4.032.042,1.229,1.229,0,0,0,.024,2.329,4.458,4.458,0,0,0,4.032-.043" transform="translate(-12504.592 -12859.484)" fill="#fff"/>
  </g>
</svg>
