<svg xmlns="http://www.w3.org/2000/svg" xmlns:xlink="http://www.w3.org/1999/xlink" width="57.846" height="64.577" viewBox="0 0 57.846 64.577">
  <defs>
    <clipPath id="clip-path">
      <rect id="Rectángulo_296641" data-name="Rectángulo 296641" width="22.351" height="36.106" fill="none"/>
    </clipPath>
  </defs>
  <g id="Grupo_146390" data-name="Grupo 146390" transform="translate(12319.95 12611.944)">
    <path id="Trazado_202575" data-name="Trazado 202575" d="M213.858,308.611l29.134-16.751V260.781l-29.134,16.752Z" transform="translate(-12505.097 -12855.979)" fill="#72b5e8"/>
    <path id="Trazado_202576" data-name="Trazado 202576" d="M217.2,279.408l22.351-12.853v23.256L217.2,302.661Z" transform="translate(-12505.046 -12855.891)" fill="#ffb30b"/>
    <g id="Grupo_137899" data-name="Grupo 137899" transform="translate(-12287.847 -12589.335)" opacity="0.2" style="mix-blend-mode: multiply;isolation: isolate">
      <g id="Grupo_137898" data-name="Grupo 137898">
        <g id="Grupo_137897" data-name="Grupo 137897" clip-path="url(#clip-path)">
          <path id="Trazado_202577" data-name="Trazado 202577" d="M238.5,267.119v22.1l-21.3,12.287v1.155l22.352-12.851V266.556Z" transform="translate(-217.199 -266.556)" fill="#ffb30b"/>
        </g>
      </g>
    </g>
    <path id="Trazado_202578" data-name="Trazado 202578" d="M185.574,291.86,214.3,308.611V277.533L185.574,260.8Z" transform="translate(-12505.524 -12855.978)" fill="#a8cff0"/>
    <path id="Trazado_202579" data-name="Trazado 202579" d="M188.915,289.824V266.613l21.946,12.782v23.224Z" transform="translate(-12505.474 -12855.89)" fill="#ffb30b"/>
    <path id="Trazado_202580" data-name="Trazado 202580" d="M189.868,289.4V267.169l-.954-.555v23.211L210.86,302.62v-.98Z" transform="translate(-12505.474 -12855.89)" fill="#ffb30b"/>
    <path id="Trazado_202581" data-name="Trazado 202581" d="M185.574,261.053,214.3,277.782l29.118-16.752-28.759-16.748Z" transform="translate(-12505.524 -12856.228)" fill="#d1ebff"/>
    <path id="Trazado_202582" data-name="Trazado 202582" d="M192.237,261.009l22.316-12.865,22,12.81-22.339,12.852Z" transform="translate(-12505.424 -12856.169)" fill="#ffb30b"/>
    <path id="Trazado_202583" data-name="Trazado 202583" d="M214.552,249.416l20.9,12.17,1.1-.632-22-12.81-22.316,12.865,1.1.64Z" transform="translate(-12505.424 -12856.169)" fill="#ffb30b"/>
    <path id="Trazado_202584" data-name="Trazado 202584" d="M185.574,260.8,214.3,277.533l29.118-16.752L214.4,276.425Z" transform="translate(-12505.524 -12855.979)" fill="#fff"/>
    <path id="Trazado_202585" data-name="Trazado 202585" d="M207.2,282.164a22.966,22.966,0,0,1-6.986-6.52l-.028-.015a9.827,9.827,0,0,1-6.986-1.548l-.1-.056.135,1.8c.474,6.321,2.942,11.511,6.912,17.655l.1.056c3.971-1.559,6.439-3.9,6.913-9.674l.135-1.642Zm-3.435,1.89c-.243,2.957-1.506,4.156-3.541,4.955l-.049-.028c-2.034-3.147-3.3-5.806-3.541-9.043l-.069-.922.049.029a5.03,5.03,0,0,0,3.578.792l.014.008a11.774,11.774,0,0,0,3.578,3.34l.049.027Z" transform="translate(-12505.41 -12855.777)" fill="#fff"/>
    <path id="Trazado_202586" data-name="Trazado 202586" d="M232.736,279.462l-.1.06v-2.956c0-1.893-1.338-2.657-2.989-1.7l-2.061,1.19a6.583,6.583,0,0,0-2.988,5.154v2.955l-.1.06a3.067,3.067,0,0,0-1.391,2.4v7.33c0,.882.623,1.237,1.391.794l8.243-4.759a3.064,3.064,0,0,0,1.391-2.4v-7.33c0-.881-.622-1.236-1.391-.793m-3.606,8.214v1.73L228.1,290v-1.73c-.411.015-.7-.3-.7-.854a2.668,2.668,0,0,1,1.21-2.088c.669-.386,1.211-.077,1.211.69a2.666,2.666,0,0,1-.7,1.657m1.77-7.155-4.571,2.639V280.8a3.748,3.748,0,0,1,1.7-2.933l1.171-.676c.939-.542,1.7-.109,1.7.969Z" transform="translate(-12504.956 -12855.771)" fill="#fff"/>
    <path id="Trazado_202587" data-name="Trazado 202587" d="M221.913,261.665a2.663,2.663,0,0,0-.005-1.093l2.313-.817-.075-.164a5.136,5.136,0,0,0-1.082-1.5l-.149-.147-2.646.361a6.641,6.641,0,0,0-1.344-.776L219.55,256l-.254-.086a15.4,15.4,0,0,0-2.606-.625l-.284-.044-1.415,1.336a13.716,13.716,0,0,0-1.894,0l-1.43-1.341-.284.043a15.307,15.307,0,0,0-2.6.615l-.254.085.643,1.53a7.872,7.872,0,0,0-.713.359,6.47,6.47,0,0,0-.623.412l-2.65-.372-.147.146a5.05,5.05,0,0,0-1.067,1.5l-.073.164,2.323.825a2.68,2.68,0,0,0,.006,1.093l-2.315.817.075.164a5.135,5.135,0,0,0,1.084,1.5l.148.147,2.645-.362a6.556,6.556,0,0,0,1.344.777l-.626,1.527.255.086a15.434,15.434,0,0,0,2.6.625l.285.044,1.415-1.336a13.716,13.716,0,0,0,1.894,0l1.429,1.341.284-.042a15.245,15.245,0,0,0,2.6-.616l.254-.085-.644-1.53a7.526,7.526,0,0,0,.715-.359,6.028,6.028,0,0,0,.621-.412l2.651.372.147-.146a5.028,5.028,0,0,0,1.066-1.5l.074-.163Zm-5.424.836a5.34,5.34,0,0,1-4.825-.008c-1.335-.77-1.342-2.02-.015-2.787a5.34,5.34,0,0,1,4.825.009c1.335.77,1.341,2.02.015,2.786" transform="translate(-12505.247 -12856.063)" fill="#fff"/>
  </g>
</svg>
