<svg xmlns="http://www.w3.org/2000/svg" xmlns:xlink="http://www.w3.org/1999/xlink" width="69.538" height="45.755" viewBox="0 0 69.538 45.755">
  <defs>
    <clipPath id="clip-path">
      <path id="Trazado_203365" data-name="Trazado 203365" d="M417.705,179.119v0L383.144,199.2l33.421,25.183,34.049-19.762a1.655,1.655,0,0,0,.3-.175h0a2.959,2.959,0,0,0,.92-2.432A7.536,7.536,0,0,0,448.689,196l-28.946-16.711a2.507,2.507,0,0,0-1.245-.376,1.605,1.605,0,0,0-.794.2" transform="translate(-383.144 -178.917)" fill="none"/>
    </clipPath>
    <linearGradient id="linear-gradient" x1="-5.662" y1="3.245" x2="-5.647" y2="3.245" gradientUnits="objectBoundingBox">
      <stop offset="0" stop-color="#d4ecff"/>
      <stop offset="0.238" stop-color="#d0e9fd"/>
      <stop offset="0.46" stop-color="#c5e2f9"/>
      <stop offset="0.675" stop-color="#b2d5f1"/>
      <stop offset="0.884" stop-color="#97c3e7"/>
      <stop offset="1" stop-color="#86b8e0"/>
    </linearGradient>
    <clipPath id="clip-path-2">
      <path id="Trazado_203367" data-name="Trazado 203367" d="M382.31,201.276a7.537,7.537,0,0,0,3.146,6.011L414.4,224c1.737,1,3.145-.061,3.145-2.378a7.532,7.532,0,0,0-3.145-6.01L385.456,198.9a2.525,2.525,0,0,0-1.249-.378c-1.116,0-1.9,1.031-1.9,2.756" transform="translate(-382.31 -198.52)" fill="none"/>
    </clipPath>
  </defs>
  <g id="Grupo_146389" data-name="Grupo 146389" transform="translate(12120.237 12678.3)">
    <g id="Grupo_138063" data-name="Grupo 138063" transform="translate(-12119.391 -12678.3)">
      <g id="Grupo_138062" data-name="Grupo 138062" clip-path="url(#clip-path)">
        <rect id="Rect치ngulo_296698" data-name="Rect치ngulo 296698" width="68.691" height="45.467" transform="translate(0 0)" fill="url(#linear-gradient)"/>
      </g>
    </g>
    <path id="Trazado_203366" data-name="Trazado 203366" d="M416.132,224.089l34.049-19.762a1.6,1.6,0,0,0,.3-.175h0a2.956,2.956,0,0,0,.921-2.432,7.722,7.722,0,0,0-.848-3.347l-38.813,22.408Z" transform="translate(-12502.102 -12856.923)" fill="#396caa"/>
    <g id="Grupo_138067" data-name="Grupo 138067" transform="translate(-12120.237 -12658.4)">
      <g id="Grupo_138066" data-name="Grupo 138066" clip-path="url(#clip-path-2)">
        <rect id="Rect치ngulo_296700" data-name="Rect치ngulo 296700" width="35.236" height="26.481" transform="translate(0)" fill="#063366"/>
      </g>
    </g>
    <path id="Trazado_203368" data-name="Trazado 203368" d="M414.729,215.454l-28.946-16.711a2,2,0,0,0-2.08-.147,2.186,2.186,0,0,1,1.732.306l28.946,16.711a7.535,7.535,0,0,1,3.146,6.011,2.8,2.8,0,0,1-1.066,2.525c.852-.259,1.414-1.22,1.414-2.683a7.535,7.535,0,0,0-3.146-6.011" transform="translate(-12502.526 -12856.923)" fill="#fff"/>
    <path id="Trazado_203369" data-name="Trazado 203369" d="M409.713,218.122l-3.48-2.008a1.5,1.5,0,0,1-.627-1.2c0-.461.281-.674.627-.474l3.48,2.008a1.5,1.5,0,0,1,.627,1.2c0,.462-.281.674-.627.474" transform="translate(-12502.194 -12856.681)" fill="#ffb30b"/>
    <path id="Trazado_203370" data-name="Trazado 203370" d="M414.092,194.983a1.01,1.01,0,0,0-.02-1.914,3.664,3.664,0,0,0-3.313.035,1.01,1.01,0,0,0,.02,1.914,3.661,3.661,0,0,0,3.313-.035" transform="translate(-12502.127 -12857.009)" fill="#5793ce"/>
    <path id="Trazado_203371" data-name="Trazado 203371" d="M419.067,197.786a1.01,1.01,0,0,0-.02-1.914,3.664,3.664,0,0,0-3.313.035,1.01,1.01,0,0,0,.02,1.914,3.661,3.661,0,0,0,3.313-.035" transform="translate(-12502.052 -12856.966)" fill="#fff"/>
    <path id="Trazado_203372" data-name="Trazado 203372" d="M424.041,200.589a1.01,1.01,0,0,0-.02-1.914,3.665,3.665,0,0,0-3.313.035,1.01,1.01,0,0,0,.02,1.914,3.661,3.661,0,0,0,3.313-.035" transform="translate(-12501.977 -12856.924)" fill="#fff"/>
  </g>
</svg>
