<svg xmlns="http://www.w3.org/2000/svg" xmlns:xlink="http://www.w3.org/1999/xlink" width="62.23" height="62.23" viewBox="0 0 62.23 62.23">
  <defs>
    <clipPath id="clip-path">
      <rect id="Rectángulo_293786" data-name="Rectángulo 293786" width="62.23" height="62.23" fill="none"/>
    </clipPath>
  </defs>
  <g id="Grupo_131841" data-name="Grupo 131841" transform="translate(0 -0.382)">
    <g id="Grupo_131841-2" data-name="Grupo 131841" transform="translate(0 0.382)" clip-path="url(#clip-path)">
      <path id="Trazado_192304" data-name="Trazado 192304" d="M76.14,120A20.14,20.14,0,1,1,56,140.14,20.14,20.14,0,0,1,76.14,120" transform="translate(-48.951 -105.1)" fill="#00defc"/>
      <path id="Trazado_192305" data-name="Trazado 192305" d="M60.365,95.161V101.2l-2.306.735a23.986,23.986,0,0,1-4.34,10.463l1.118,2.155-4.28,4.28L48.4,117.718a23.986,23.986,0,0,1-10.463,4.34l-.735,2.306H31.161l-.735-2.306a23.986,23.986,0,0,1-10.463-4.34l-2.155,1.118-4.28-4.28,1.118-2.155a23.986,23.986,0,0,1-4.34-10.463L8,101.2V95.161l2.306-.735a23.986,23.986,0,0,1,4.34-10.463l-1.118-2.155,4.28-4.28,2.155,1.118a23.986,23.986,0,0,1,10.463-4.34L31.161,72h3.021v6.042a20.11,20.11,0,1,0,9.637,2.447l.433-.433h8.832l1.752,1.752-1.118,2.155a23.986,23.986,0,0,1,4.34,10.463Z" transform="translate(-6.993 -63.142)" fill="#ffb30b"/>
      <path id="Trazado_192306" data-name="Trazado 192306" d="M248.224,8h-30.21A2.02,2.02,0,0,0,216,10.014V22.1a2.02,2.02,0,0,0,2.014,2.014h2.014V26.72A1.4,1.4,0,0,0,221,28.06a1.084,1.084,0,0,0,.443.081,1.425,1.425,0,0,0,1.007-.413l3.182-3.182.433-.433h22.154a2.02,2.02,0,0,0,2.014-2.014V10.014A2.02,2.02,0,0,0,248.224,8" transform="translate(-188.811 -7.198)" fill="#b9ddfc"/>
      <path id="Trazado_192307" data-name="Trazado 192307" d="M243.021,32H240V42.07h3.021a5.035,5.035,0,0,0,0-10.07m0,8.056h-1.007V34.014h1.007a3.021,3.021,0,0,1,0,6.042" transform="translate(-209.79 -28.177)"/>
      <path id="Trazado_192308" data-name="Trazado 192308" d="M403.021,34.014h2.014a1.008,1.008,0,0,1,1.007,1.007h2.014A3.025,3.025,0,0,0,405.035,32h-2.014a3.021,3.021,0,1,0,0,6.042h2.014a1.007,1.007,0,1,1,0,2.014h-2.014a1.008,1.008,0,0,1-1.007-1.007H400a3.025,3.025,0,0,0,3.021,3.021h2.014a3.021,3.021,0,0,0,0-6.042h-2.014a1.007,1.007,0,1,1,0-2.014" transform="translate(-349.649 -28.177)"/>
      <path id="Trazado_192309" data-name="Trazado 192309" d="M326.042,38.811,322.636,32H320V42.07h2.014V35.259l3.406,6.811h2.636V32h-2.014Z" transform="translate(-279.719 -28.177)"/>
      <path id="Trazado_192310" data-name="Trazado 192310" d="M59.414,0H29.2a3.025,3.025,0,0,0-3.021,3.021V8.056h-2.75l-.771,2.422a25.221,25.221,0,0,0-9.777,4.055L10.62,13.362,5.308,18.675l1.17,2.264a25.18,25.18,0,0,0-4.054,9.777L0,31.488V39l2.423.77a25.2,25.2,0,0,0,4.054,9.777l-1.17,2.264,5.312,5.313,2.264-1.171a25.206,25.206,0,0,0,9.777,4.055l.772,2.423h7.515l.771-2.422A25.221,25.221,0,0,0,41.5,55.958l2.264,1.171,5.312-5.313L47.9,49.552a25.18,25.18,0,0,0,4.054-9.777L54.379,39V31.487l-2.423-.77A25.2,25.2,0,0,0,47.9,20.94l1.17-2.264-.551-.55H59.414a3.025,3.025,0,0,0,3.021-3.021V3.021A3.025,3.025,0,0,0,59.414,0M31.364,21.783c.248.752.476,1.545.677,2.386H22.322c1.019-4.31,2.569-7.144,4.113-7.859A3.025,3.025,0,0,0,29.2,18.126H30.21v1.6a2.424,2.424,0,0,0,1.154,2.059m5.62-2.964a19.145,19.145,0,0,1,5.8,5.35H34.107q-.257-1.14-.565-2.19a2.423,2.423,0,0,0,.821-.536Zm-26.64,7.363h9.537a53.726,53.726,0,0,0-.739,8.056H8.107a19,19,0,0,1,2.238-8.056m1.273-2.014A19.16,19.16,0,0,1,23.3,16.512a21.472,21.472,0,0,0-3.019,7.656Zm9.547,10.07a50.782,50.782,0,0,1,.746-8.056H32.463a50.634,50.634,0,0,1,.752,8.056Zm12.048,2.014a50.782,50.782,0,0,1-.746,8.056H21.911a50.782,50.782,0,0,1-.746-8.056Zm-14.071,0a53.859,53.859,0,0,0,.739,8.056H10.344a19,19,0,0,1-2.238-8.056Zm1.135,10.07A21.472,21.472,0,0,0,23.3,53.979a19.16,19.16,0,0,1-11.678-7.656Zm2.046,0h9.733c-1.185,5.013-3.089,8.056-4.866,8.056s-3.682-3.043-4.867-8.056m11.778,0h8.659a19.16,19.16,0,0,1-11.678,7.656A21.472,21.472,0,0,0,34.1,46.323m9.932-2.014H34.5a53.726,53.726,0,0,0,.739-8.056H46.271a19,19,0,0,1-2.238,8.056m-8.805-10.07a53.057,53.057,0,0,0-.727-8.056h9.529a19.113,19.113,0,0,1,2.258,8.056Zm11.378-15.18-1.062,2.054.367.5a23.155,23.155,0,0,1,4.159,10.03l.1.615,2.2.7v4.569l-2.2.7-.1.615a23.15,23.15,0,0,1-4.159,10.03l-.367.5,1.062,2.054-3.232,3.23L41.322,53.6l-.5.367a23.16,23.16,0,0,1-10.031,4.16l-.615.1-.7,2.2H24.905l-.7-2.2-.615-.1a23.16,23.16,0,0,1-10.031-4.16l-.5-.367L11,54.663l-3.232-3.23,1.062-2.054-.367-.5A23.155,23.155,0,0,1,4.31,38.845l-.1-.615-2.2-.7V32.962l2.2-.7.1-.615a23.15,23.15,0,0,1,4.159-10.03l.367-.5L7.772,19.06,11,15.829l2.053,1.062.5-.367a23.16,23.16,0,0,1,10.031-4.16l.615-.1.7-2.2h1.278V14.15A21.1,21.1,0,1,0,39.6,18.126h6.071Zm13.814-3.954a1.008,1.008,0,0,1-1.007,1.007H36.843l-3.907,3.906a.433.433,0,0,1-.711-.3V16.112H29.2A1.008,1.008,0,0,1,28.2,15.105V3.021A1.008,1.008,0,0,1,29.2,2.014h30.21a1.008,1.008,0,0,1,1.007,1.007Z" transform="translate(0 -0.205)"/>
      <rect id="Rectángulo_293776" data-name="Rectángulo 293776" width="10.193" height="1.609" transform="translate(50.428 48.282)" fill="#ffb30b"/>
      <rect id="Rectángulo_293777" data-name="Rectángulo 293777" width="10.193" height="2.146" transform="translate(50.428 52.037)" fill="#ffb30b"/>
      <rect id="Rectángulo_293778" data-name="Rectángulo 293778" width="2.146" height="1.609" transform="translate(50.428 56.329)" fill="#ffb30b"/>
      <rect id="Rectángulo_293779" data-name="Rectángulo 293779" width="2.146" height="1.609" transform="translate(54.183 56.329)" fill="#ffb30b"/>
      <rect id="Rectángulo_293780" data-name="Rectángulo 293780" width="2.146" height="1.609" transform="translate(58.475 56.329)" fill="#ffb30b"/>
      <rect id="Rectángulo_293781" data-name="Rectángulo 293781" width="10.193" height="2.146" transform="translate(2.146 1.609)" fill="#ffb30b"/>
      <rect id="Rectángulo_293782" data-name="Rectángulo 293782" width="10.193" height="2.146" transform="translate(2.146 5.901)" fill="#ffb30b"/>
      <rect id="Rectángulo_293783" data-name="Rectángulo 293783" width="2.146" height="2.146" transform="translate(2.146 9.656)" fill="#ffb30b"/>
      <rect id="Rectángulo_293784" data-name="Rectángulo 293784" width="2.146" height="2.146" transform="translate(5.901 9.656)" fill="#ffb30b"/>
      <rect id="Rectángulo_293785" data-name="Rectángulo 293785" width="2.146" height="2.146" transform="translate(10.193 9.656)" fill="#ffb30b"/>
    </g>
  </g>
</svg>
